PathFileType	4	(X/Y/Z)	38_2_99_p1_0-332_filt_butterworth.trc
DataRate	CameraRate	NumFrames	NumMarkers	Units	OrigDataRate	OrigDataStartFrame	OrigNumFrames
59.0	59.0	6	27	m	59.0	0	332
Frame#	Time	RHip			RKnee			RAnkle			RBigToe			RSmallToe			RHeel			LHip			LKnee			LAnkle			LBigToe			LSmallToe			LHeel			Neck			Head			Nose			RShoulder			RElbow			RWrist			RThumb			RIndex			RPinky			LShoulder			LElbow			LWrist			LThumb			LIndex			LPinky			
		X1	Y1	Z1	X2	Y2	Z2	X3	Y3	Z3	X4	Y4	Z4	X5	Y5	Z5	X6	Y6	Z6	X7	Y7	Z7	X8	Y8	Z8	X9	Y9	Z9	X10	Y10	Z10	X11	Y11	Z11	X12	Y12	Z12	X13	Y13	Z13	X14	Y14	Z14	X15	Y15	Z15	X16	Y16	Z16	X17	Y17	Z17	X18	Y18	Z18	X19	Y19	Z19	X20	Y20	Z20	X21	Y21	Z21	X22	Y22	Z22	X23	Y23	Z23	X24	Y24	Z24	X25	Y25	Z25	X26	Y26	Z26	X27	Y27	Z27	
0	0.0	0.380037139699353	0.7778583606773354	0.5437818828640977	0.36412927243915194	0.9045267730987062	0.9472558486618078	0.36331987953801365	1.0477361195885222	1.3577198289299095	0.3244661726059671	0.8700773134410726	1.4276453376450327	0.4000692327841136	0.8778502087144313	1.4302632165009255	0.35405291117993953	1.1742662394810437	1.4100549642813474	0.1718416447346689	0.8179886259417477	0.5518105130118854	0.16918355200884488	0.939096030234873	0.9448089638975115	0.1631431151846411	1.061795614667308	1.3315816541219885	0.1565105258876317	0.8706053156565989	1.4073606145131936	0.10611836925934534	0.9370356463776982	1.4110159569512908	0.19373515520019555	1.1326485040388434	1.3881257305918946	0.27785036964626164	0.6304709497186362	-0.002333119494802156	0.2781489504503316	0.521730605100924	-0.23379754134154465	0.27635549905108986	0.506819419056881	-0.10110687388143083	0.44694230108410454	0.6526283492513643	0.09772042163946638	0.4187823058474701	0.6439783772802921	0.3750969250468485	0.31089282347870906	0.5858894428189623	0.5601564317097283	0.2325436373475839	0.6371369632240378	0.6319237641855157	0.22920480306360935	0.6395897446282578	0.6356752050372887	0.22770460720839486	0.6253917741282197	0.6389399174992365	0.1332832671401183	0.6932792822377201	0.07874718075691654	0.09989033782515232	0.6710137270682923	0.34636213211720424	0.20137379163172314	0.6449669107691102	0.5389544002666239	0.25746254905475774	0.610834206339909	0.6167481318247372	0.2568165894963599	0.6150845381555134	0.6327398722573188	0.23290992495030433	0.6309382949949995	0.6370170265349917
1	0.0169491525423728	0.37981199850548264	0.7772369085162137	0.5425147403679514	0.3651752952049483	0.9045673765715708	0.9471680794580932	0.3633774597828765	1.0478913140510753	1.3577146192694547	0.3245676447200348	0.8701264130667723	1.4275506894072472	0.3969612772762371	0.8694472531335367	1.4275029044132346	0.3540840048908316	1.1741652467155255	1.4100602078278295	0.1688756430961542	0.809880543597026	0.5518597956161289	0.1680372429974684	0.9382867473020007	0.9424386263122655	0.16310877577322816	1.0618925980017793	1.3315536683168259	0.1571140674861291	0.8698325982697426	1.4048647065370092	0.10637864774414485	0.9367366167973671	1.409621435651818	0.19470231687745015	1.1368060185670834	1.389594838870808	0.27786182779636853	0.6305779431879159	-0.0023435527225910534	0.2793801064113411	0.5140542591859978	-0.231942926082824	0.27364287433782797	0.5004441847420059	-0.09978954178184617	0.44685390678504344	0.6524789178244667	0.09635363859200052	0.42121640542988575	0.6435929944282873	0.37372861407884816	0.3106763859608407	0.5875647764106409	0.5601752247265397	0.23477559954437532	0.6302012881230568	0.6339152823794283	0.22999667800001924	0.6410468039509649	0.6380588848386742	0.23092017551539218	0.6305383931520432	0.6382038132250537	0.13060486210947464	0.6856803911222763	0.07961039352703253	0.09990246004930382	0.6713557102136112	0.34641217746170716	0.1995805040638127	0.65385367966942	0.539138333589674	0.25686746569110425	0.610441828272278	0.6165042155977504	0.2554790864617185	0.6147954482403449	0.6317551922677844	0.23317951058538278	0.6307043776542687	0.634904316937708
2	0.0338983050847457	0.37957760682774105	0.7771048679953245	0.5423887032034653	0.36511160323052694	0.9045473727140331	0.9471079899576669	0.36334757920532823	1.0480208020959654	1.3577154377958955	0.3246175175829565	0.8701560280496319	1.427512635334467	0.3950749101800879	0.864429459182311	1.4258810538209281	0.35411265500439204	1.1741448778648096	1.410072518411554	0.1671724180041931	0.8072857829203661	0.552997972832588	0.16737075360310114	0.9377887015559044	0.9413291050316555	0.1630860598472048	1.0619114754021575	1.3315210623093823	0.15746801109312447	0.8693353872613218	1.4033765117502208	0.10668766604524887	0.9363387020328889	1.408245816449401	0.1946274551047913	1.1372591545041557	1.3899357059155557	0.2778608490190623	0.6306431852380561	-0.002348276429902825	0.28010578753960624	0.5094882574101375	-0.23085682678299518	0.2720097544391883	0.4966215828638493	-0.0990055031547275	0.4467942938187661	0.6523674091930866	0.0950790181176594	0.4226011796647974	0.64311103049109	0.37243256055642476	0.3101747838899954	0.5909621187784647	0.5602404678264926	0.236179710063674	0.6260807537505004	0.6351005969458597	0.23084225473018494	0.6422678636977417	0.6399608718047346	0.23412370731188814	0.6357717234949912	0.6381023889664178	0.12896030007872689	0.6810182621238714	0.08014912667582423	0.09991435125850907	0.6716122919900155	0.3464973104654791	0.1986561390001342	0.6592443871615035	0.5392486759672089	0.2575638161929944	0.6120877307442654	0.6169737665526216	0.256028407295171	0.615875611698084	0.6314426071796282	0.2351775433831334	0.6333537445136002	0.6345059882898847
3	0.0508474576271186	0.37927337105223546	0.7771527624229219	0.5433713703684208	0.3643844243014394	0.9045149345719102	0.9471051968331538	0.3632356202313289	1.0481405656710459	1.3577264312409218	0.32462312619443656	0.8701733423620086	1.42752577172225	0.3944933851149839	0.8629942681354171	1.425457050864913	0.3541374890074324	1.1742082722947025	1.4100921855657806	0.16683141964547657	0.809653838179363	0.5545467023819683	0.16720929624240594	0.9375757467617183	0.9412119484224973	0.16307593164259127	1.061838771747459	1.3314827223652077	0.15754638878981514	0.8691096619766123	1.4029470283510357	0.10693856473206567	0.9359874861214457	1.4072618420628091	0.19386197704436367	1.1351319121818513	1.389422023355713	0.2778516504096468	0.6306687788984826	-0.0023497166026598348	0.28029165373658416	0.5082444742964038	-0.23058735390857407	0.2714947121409208	0.4954437676974135	-0.09876512568452755	0.44677113905763777	0.6523174182759661	0.09422440593852724	0.4229136827750813	0.6427467064648098	0.3715589934079362	0.30948173518409267	0.5955293794188461	0.5603447307657592	0.23671409068621638	0.6248759770152672	0.6354146539067517	0.23148418920219105	0.6433697146460939	0.6416704216550484	0.23650918244744826	0.639858494115646	0.6387767534261848	0.12854246984156797	0.6798244118293494	0.08030045121652173	0.09991076792590724	0.6717114659514614	0.3466006962566185	0.19894020420233413	0.6610121173147406	0.5392748703883088	0.2600403231879798	0.6165600414845341	0.6184564287940548	0.2584563918741165	0.6184564602882269	0.6319551351876314	0.23879779644283258	0.6383741009277969	0.6356926609648709
4	0.0677966101694915	0.37907509738578804	0.7771156539262105	0.5449103572396181	0.3641988139735913	0.9045496145212021	0.9471710660644208	0.36322822375910907	1.048329436575412	1.357755094867523	0.32462421193461616	0.8702006479896401	1.4275457724232792	0.3945666583384808	0.8632537166892623	1.42557499461565	0.35414913268328635	1.174275304089598	1.4101107450213157	0.16744901922919686	0.8129848354331846	0.555498888515977	0.1672745360641953	0.9374841025444064	0.9412595618222459	0.16307319629728914	1.0617324116783675	1.3314535923458388	0.15748986449801	0.8689883522549098	1.4030048163418583	0.10704123284371424	0.9358294445567628	1.4068845747003336	0.19322331242680468	1.1332865780693444	1.3889116981206258	0.2778464392943531	0.6306970220139992	-0.0023535333473926174	0.28021949597693063	0.508578058499708	-0.23069754362866546	0.2714789340246525	0.4954579808957448	-0.09875078310286488	0.4467668734146693	0.652317460721699	0.09391896473087863	0.4227628312034302	0.6426943219579561	0.3712625237515953	0.30890447898921425	0.5994093409590683	0.5604449731802068	0.23684765751036474	0.6250022897777614	0.6353272313384573	0.23163962881266087	0.6444165284867375	0.6433829764553564	0.23764898335686868	0.6420850397289626	0.6396899968171381	0.12909162623278164	0.681351153069824	0.08013547806379012	0.09986925563559	0.671684419968972	0.34658832029719955	0.20022993053473964	0.6613101578290447	0.5392657081856438	0.26331187602506495	0.6222589822764001	0.620409035329425	0.26143765907905664	0.6219973550927176	0.6329023060108235	0.24249946807237235	0.6428745361574705	0.6370814444854215
5	0.0847457627118644	0.37943197188178596	0.7773869574697923	0.5465085105961504	0.36517227857469486	0.9046519218421089	0.9472644085932475	0.3637439674801999	1.04868107714054	1.3578252136004922	0.3246443549533077	0.8702443494850053	1.4275487809050533	0.39478686868184704	0.8637224438989561	1.4257227946608548	0.3541509851002542	1.1743001304719103	1.4101282572778673	0.16888399074190794	0.8152205496145979	0.5558465639224687	0.16738325076528177	0.9375154893224371	0.941480618571385	0.16307450753941327	1.0616722543412345	1.3314600378014647	0.15742713969868088	0.8688929913451746	1.4031162971377775	0.10703923333990578	0.9358190074721371	1.4069037256112222	0.1929229330891892	1.1326080262912004	1.3888622647224924	0.2778512586999833	0.6307561093495204	-0.0023653038828852883	0.28011692931285975	0.5090674978464301	-0.23083403883515727	0.27161206035387925	0.4958426838574189	-0.0987903120054378	0.4467618510863473	0.6523336792150779	0.09392615070770137	0.42258091698654066	0.6428832999770979	0.3713034529653426	0.30846256814592327	0.6025235564421771	0.5605448139982395	0.236904384318217	0.6256070250504784	0.6352396813652406	0.23142369506061763	0.6451726409716761	0.644623898781668	0.23827764053963918	0.6437265096134536	0.6403243440371612	0.13038888398459753	0.6849923501965867	0.07971071214135333	0.09981478373809757	0.6716791509097696	0.34618534351790253	0.2018566050378519	0.6616719566252578	0.5392724919938987	0.2657449460149646	0.6264386330133285	0.6218573023264635	0.2637977373415823	0.6261012137376448	0.634158830015259	0.24506395090096655	0.6451745223364873	0.6378034845679139
